# xmcd CD database file
#
# Track frame offsets:
#	150
#	14236
#	29364
#	46432
#	60088
#	74595
#	86147
#	100262
#	113401
#	126843
#	139909
#	155073
#
# Disc length: 2265 seconds
#
# Revision: 0
# Processed by: cddbd v1.4PL0 Copyright (c) Steve Scherf et al.
# Submitted via: CDex 1.50
#
DISCID=a808d70c
DTITLE=Louis Armstrong - the best of Louis Armstrong
DYEAR=2000
DGENRE=Jazz
TTITLE0=Melancholy
TTITLE1=Ain't Misbehavin'
TTITLE2=Some Of These Days
TTITLE3=St Louis Blues
TTITLE4=Shanghai Shuffle
TTITLE5=Everybody Loves My Baby
TTITLE6=Texas Moaner Blues
TTITLE7=Papa De Da Da
TTITLE8=Money Blues
TTITLE9=Sugar Foot Stomp
TTITLE10=Confessin'
TTITLE11=Shine
EXTD=YEAR: 2000
EXTT0=
EXTT1=
EXTT2=
EXTT3=
EXTT4=
EXTT5=
EXTT6=
EXTT7=
EXTT8=
EXTT9=
EXTT10=
EXTT11=
PLAYORDER=
